<mxfile host="app.diagrams.net" agent="Mozilla/5.0 (Macintosh; Intel Mac OS X 10_15_7) AppleWebKit/537.36 (KHTML, like Gecko) Chrome/131.0.0.0 Safari/537.36" version="24.9.1">
  <diagram name="Page-1" id="qrZ6WHxw_V1RNk0cNx4r">
    <mxGraphModel dx="774" dy="968" grid="0" gridSize="10" guides="1" tooltips="1" connect="1" arrows="1" fold="1" page="1" pageScale="1" pageWidth="1169" pageHeight="827" math="0" shadow="0">
      <root>
        <mxCell id="0" />
        <mxCell id="1" parent="0" />
        <mxCell id="FFxI6MTCsDX10_4IXox7-1" value="&lt;span style=&quot;color: rgb(51, 51, 51); font-family: AmazonEmber, &amp;quot;Helvetica Neue&amp;quot;, Helvetica, Arial, sans-serif; font-size: 14px; text-align: start;&quot;&gt;&lt;b&gt;The software development lifecycle (SDLC)&amp;nbsp;&lt;/b&gt;&lt;/span&gt;" style="text;html=1;align=center;verticalAlign=middle;whiteSpace=wrap;rounded=0;" vertex="1" parent="1">
          <mxGeometry x="270" y="47" width="350" height="30" as="geometry" />
        </mxCell>
        <mxCell id="FFxI6MTCsDX10_4IXox7-2" value="" style="strokeWidth=2;html=1;shape=mxgraph.flowchart.terminator;whiteSpace=wrap;fillColor=#66FF66;" vertex="1" parent="1">
          <mxGeometry x="410" y="290" width="100" height="60" as="geometry" />
        </mxCell>
        <mxCell id="FFxI6MTCsDX10_4IXox7-3" value="Security" style="text;html=1;align=center;verticalAlign=middle;whiteSpace=wrap;rounded=0;fontStyle=1;fontSize=16;" vertex="1" parent="1">
          <mxGeometry x="430" y="305" width="60" height="30" as="geometry" />
        </mxCell>
        <mxCell id="FFxI6MTCsDX10_4IXox7-5" value="" style="strokeWidth=2;html=1;shape=mxgraph.flowchart.start_2;whiteSpace=wrap;" vertex="1" parent="1">
          <mxGeometry x="270" y="120" width="100" height="100" as="geometry" />
        </mxCell>
        <mxCell id="FFxI6MTCsDX10_4IXox7-6" value="" style="strokeWidth=2;html=1;shape=mxgraph.flowchart.start_2;whiteSpace=wrap;" vertex="1" parent="1">
          <mxGeometry x="520" y="120" width="100" height="100" as="geometry" />
        </mxCell>
        <mxCell id="FFxI6MTCsDX10_4IXox7-7" value="" style="strokeWidth=2;html=1;shape=mxgraph.flowchart.start_2;whiteSpace=wrap;" vertex="1" parent="1">
          <mxGeometry x="620" y="270" width="100" height="100" as="geometry" />
        </mxCell>
        <mxCell id="FFxI6MTCsDX10_4IXox7-8" value="" style="strokeWidth=2;html=1;shape=mxgraph.flowchart.start_2;whiteSpace=wrap;" vertex="1" parent="1">
          <mxGeometry x="520" y="410" width="100" height="100" as="geometry" />
        </mxCell>
        <mxCell id="FFxI6MTCsDX10_4IXox7-9" value="" style="strokeWidth=2;html=1;shape=mxgraph.flowchart.start_2;whiteSpace=wrap;" vertex="1" parent="1">
          <mxGeometry x="290" y="410" width="100" height="100" as="geometry" />
        </mxCell>
        <mxCell id="FFxI6MTCsDX10_4IXox7-10" value="" style="strokeWidth=2;html=1;shape=mxgraph.flowchart.start_2;whiteSpace=wrap;" vertex="1" parent="1">
          <mxGeometry x="180" y="270" width="100" height="100" as="geometry" />
        </mxCell>
        <mxCell id="FFxI6MTCsDX10_4IXox7-11" value="&lt;font style=&quot;font-size: 15px;&quot;&gt;Maintain&lt;/font&gt;" style="text;html=1;align=center;verticalAlign=middle;whiteSpace=wrap;rounded=0;" vertex="1" parent="1">
          <mxGeometry x="290" y="150" width="60" height="30" as="geometry" />
        </mxCell>
        <mxCell id="FFxI6MTCsDX10_4IXox7-12" value="&lt;font style=&quot;font-size: 15px;&quot;&gt;Plan&lt;/font&gt;" style="text;html=1;align=center;verticalAlign=middle;whiteSpace=wrap;rounded=0;" vertex="1" parent="1">
          <mxGeometry x="540" y="150" width="60" height="30" as="geometry" />
        </mxCell>
        <mxCell id="FFxI6MTCsDX10_4IXox7-13" value="&lt;font style=&quot;font-size: 15px;&quot;&gt;Design&lt;/font&gt;" style="text;html=1;align=center;verticalAlign=middle;whiteSpace=wrap;rounded=0;" vertex="1" parent="1">
          <mxGeometry x="640" y="305" width="60" height="30" as="geometry" />
        </mxCell>
        <mxCell id="FFxI6MTCsDX10_4IXox7-14" value="&lt;font style=&quot;font-size: 15px;&quot;&gt;Implement&lt;/font&gt;" style="text;html=1;align=center;verticalAlign=middle;whiteSpace=wrap;rounded=0;" vertex="1" parent="1">
          <mxGeometry x="540" y="445" width="60" height="30" as="geometry" />
        </mxCell>
        <mxCell id="FFxI6MTCsDX10_4IXox7-15" value="&lt;font style=&quot;font-size: 15px;&quot;&gt;Test&lt;/font&gt;" style="text;html=1;align=center;verticalAlign=middle;whiteSpace=wrap;rounded=0;" vertex="1" parent="1">
          <mxGeometry x="310" y="445" width="60" height="30" as="geometry" />
        </mxCell>
        <mxCell id="FFxI6MTCsDX10_4IXox7-16" value="&lt;font style=&quot;font-size: 15px;&quot;&gt;Deploy&lt;/font&gt;" style="text;html=1;align=center;verticalAlign=middle;whiteSpace=wrap;rounded=0;" vertex="1" parent="1">
          <mxGeometry x="200" y="305" width="60" height="30" as="geometry" />
        </mxCell>
        <mxCell id="FFxI6MTCsDX10_4IXox7-18" value="" style="shape=flexArrow;endArrow=classic;html=1;rounded=0;fillColor=#dae8fc;strokeColor=#6c8ebf;" edge="1" parent="1">
          <mxGeometry width="50" height="50" relative="1" as="geometry">
            <mxPoint x="585" y="230" as="sourcePoint" />
            <mxPoint x="635" y="280" as="targetPoint" />
          </mxGeometry>
        </mxCell>
        <mxCell id="FFxI6MTCsDX10_4IXox7-19" value="" style="shape=flexArrow;endArrow=classic;html=1;rounded=0;fillColor=#dae8fc;strokeColor=#6c8ebf;entryX=0.855;entryY=0.145;entryDx=0;entryDy=0;entryPerimeter=0;" edge="1" parent="1">
          <mxGeometry width="50" height="50" relative="1" as="geometry">
            <mxPoint x="654.5" y="380" as="sourcePoint" />
            <mxPoint x="620" y="434.5" as="targetPoint" />
          </mxGeometry>
        </mxCell>
        <mxCell id="FFxI6MTCsDX10_4IXox7-20" value="" style="shape=flexArrow;endArrow=classic;html=1;rounded=0;fillColor=#dae8fc;strokeColor=#6c8ebf;" edge="1" parent="1">
          <mxGeometry width="50" height="50" relative="1" as="geometry">
            <mxPoint x="510" y="470" as="sourcePoint" />
            <mxPoint x="400" y="469" as="targetPoint" />
          </mxGeometry>
        </mxCell>
        <mxCell id="FFxI6MTCsDX10_4IXox7-21" value="" style="shape=flexArrow;endArrow=classic;html=1;rounded=0;fillColor=#dae8fc;strokeColor=#6c8ebf;" edge="1" parent="1">
          <mxGeometry width="50" height="50" relative="1" as="geometry">
            <mxPoint x="280" y="440" as="sourcePoint" />
            <mxPoint x="240" y="380" as="targetPoint" />
          </mxGeometry>
        </mxCell>
        <mxCell id="FFxI6MTCsDX10_4IXox7-22" value="" style="shape=flexArrow;endArrow=classic;html=1;rounded=0;fillColor=#dae8fc;strokeColor=#6c8ebf;" edge="1" parent="1">
          <mxGeometry width="50" height="50" relative="1" as="geometry">
            <mxPoint x="240" y="260" as="sourcePoint" />
            <mxPoint x="280" y="210" as="targetPoint" />
          </mxGeometry>
        </mxCell>
        <mxCell id="FFxI6MTCsDX10_4IXox7-23" value="" style="shape=flexArrow;endArrow=classic;html=1;rounded=0;fillColor=#dae8fc;strokeColor=#6c8ebf;" edge="1" parent="1">
          <mxGeometry width="50" height="50" relative="1" as="geometry">
            <mxPoint x="390" y="170" as="sourcePoint" />
            <mxPoint x="500" y="169" as="targetPoint" />
          </mxGeometry>
        </mxCell>
        <mxCell id="FFxI6MTCsDX10_4IXox7-27" value="" style="rounded=1;whiteSpace=wrap;html=1;absoluteArcSize=1;arcSize=14;strokeWidth=7;fillColor=none;strokeColor=#FF99FF;" vertex="1" parent="1">
          <mxGeometry x="142" y="247" width="180" height="140" as="geometry" />
        </mxCell>
      </root>
    </mxGraphModel>
  </diagram>
</mxfile>
